<svg  viewBox="0 0 48 48" fill="none" xmlns="http://www.w3.org/2000/svg">
<path d="M1 16C1 17.1 1.9 18 3 18H11C12.1 18 13 17.1 13 16V6C13 4.89543 12.1046 4 11 4H3C1.89543 4 1 4.89543 1 6V16ZM14 2C14 1.44772 13.5523 1 13 1H11.2071C10.7544 1 10.3201 0.820145 10 0.5C9.67986 0.179855 9.24565 0 8.79289 0H5.20711C4.75435 0 4.32014 0.179855 4 0.5C3.67986 0.820145 3.24565 1 2.79289 1H1C0.447715 1 0 1.44772 0 2C0 2.55228 0.447715 3 1 3H13C13.5523 3 14 2.55228 14 2Z" transform="translate(17 15)" fill="#3F51B5"/>
</svg>
