<svg  viewBox="0 0 240 336" fill="none" xmlns="http://www.w3.org/2000/svg">
<rect x="1" y="1" width="238" height="334" rx="1" stroke="#3F51B5" stroke-width="2" stroke-linecap="square" stroke-dasharray="12 12"/>
<path d="M60.1113 19H57.6504V12.6816H51.293V19H48.8223V4.78125H51.293V10.6992H57.6504V4.78125H60.1113V19ZM62.4672 13.6191C62.4672 12.584 62.6723 11.653 63.0824 10.8262C63.4926 9.99284 64.0687 9.35482 64.8109 8.91211C65.5531 8.46289 66.406 8.23828 67.3695 8.23828C68.7953 8.23828 69.9509 8.69727 70.8363 9.61523C71.7283 10.5332 72.21 11.7507 72.2816 13.2676L72.2914 13.8242C72.2914 14.8659 72.0896 15.7969 71.6859 16.6172C71.2888 17.4375 70.7159 18.0723 69.9672 18.5215C69.225 18.9707 68.3656 19.1953 67.3891 19.1953C65.8982 19.1953 64.7035 18.7005 63.8051 17.7109C62.9131 16.7148 62.4672 15.39 62.4672 13.7363V13.6191ZM64.8402 13.8242C64.8402 14.9115 65.0648 15.7643 65.5141 16.3828C65.9633 16.9948 66.5883 17.3008 67.3891 17.3008C68.1898 17.3008 68.8116 16.9883 69.2543 16.3633C69.7035 15.7383 69.9281 14.8236 69.9281 13.6191C69.9281 12.5514 69.697 11.7051 69.2348 11.0801C68.779 10.4551 68.1573 10.1426 67.3695 10.1426C66.5948 10.1426 65.9796 10.4518 65.5238 11.0703C65.0681 11.6823 64.8402 12.6003 64.8402 13.8242ZM74.5789 19V8.43359H78.866C80.3113 8.43359 81.4116 8.6875 82.1668 9.19531C82.922 9.69661 83.2996 10.4193 83.2996 11.3633C83.2996 11.8516 83.1466 12.291 82.8406 12.6816C82.5411 13.0658 82.0952 13.362 81.5027 13.5703C82.1928 13.7135 82.7397 14.0033 83.1434 14.4395C83.547 14.8757 83.7488 15.39 83.7488 15.9824C83.7488 16.9655 83.3842 17.7142 82.6551 18.2285C81.9324 18.7428 80.8908 19 79.5301 19H74.5789ZM76.952 14.498V17.125H79.5496C80.7671 17.125 81.3758 16.6888 81.3758 15.8164C81.3758 14.9375 80.7573 14.498 79.5203 14.498H76.952ZM76.952 12.7988H78.9051C80.2527 12.7988 80.9266 12.4017 80.9266 11.6074C80.9266 10.7741 80.2885 10.3444 79.0125 10.3184H76.952V12.7988ZM88.4582 11.793H90.7824C91.6483 11.793 92.4035 11.9427 93.048 12.2422C93.6926 12.5417 94.1809 12.9616 94.5129 13.502C94.8514 14.0423 95.0207 14.6706 95.0207 15.3867C95.0207 16.474 94.6366 17.3464 93.8684 18.0039C93.1001 18.6615 92.078 18.9935 90.802 19H86.0852V8.43359H88.4582V11.793ZM99.1516 19H96.7785V8.43359H99.1516V19ZM88.4582 13.6973V17.1055H90.7727C91.3521 17.1055 91.8078 16.9622 92.1398 16.6758C92.4784 16.3828 92.6477 15.9694 92.6477 15.4355C92.6477 14.9017 92.4816 14.4818 92.1496 14.1758C91.8241 13.8633 91.3814 13.7038 90.8215 13.6973H88.4582ZM108.695 8.43359H111.058V19H108.695V11.9492L104.554 19H102.191V8.43359H104.554V15.4844L108.695 8.43359ZM109.808 4.38086C109.808 5.20117 109.522 5.86523 108.949 6.37305C108.376 6.88086 107.611 7.13477 106.654 7.13477C105.697 7.13477 104.932 6.88086 104.359 6.37305C103.786 5.86523 103.5 5.20117 103.5 4.38086H105.277C105.277 4.81055 105.397 5.14583 105.638 5.38672C105.886 5.62109 106.224 5.73828 106.654 5.73828C107.084 5.73828 107.419 5.62109 107.66 5.38672C107.901 5.14583 108.021 4.81055 108.021 4.38086H109.808ZM123.104 17.3008C123.696 17.3008 124.188 17.1283 124.579 16.7832C124.969 16.4382 125.177 16.0117 125.204 15.5039H127.44C127.414 16.1615 127.209 16.7767 126.825 17.3496C126.44 17.916 125.92 18.3652 125.262 18.6973C124.605 19.0293 123.895 19.1953 123.133 19.1953C121.655 19.1953 120.483 18.7168 119.618 17.7598C118.752 16.8027 118.319 15.4811 118.319 13.7949V13.5508C118.319 11.9427 118.748 10.6569 119.608 9.69336C120.467 8.72331 121.639 8.23828 123.123 8.23828C124.38 8.23828 125.402 8.60612 126.19 9.3418C126.984 10.071 127.401 11.0312 127.44 12.2227H125.204C125.177 11.6172 124.969 11.1191 124.579 10.7285C124.194 10.3379 123.703 10.1426 123.104 10.1426C122.336 10.1426 121.743 10.4225 121.327 10.9824C120.91 11.5358 120.698 12.3789 120.692 13.5117V13.8926C120.692 15.0384 120.897 15.8945 121.307 16.4609C121.724 17.0208 122.323 17.3008 123.104 17.3008ZM135.645 19C135.541 18.7982 135.45 18.4694 135.372 18.0137C134.617 18.8014 133.692 19.1953 132.598 19.1953C131.537 19.1953 130.671 18.8926 130.001 18.2871C129.33 17.6816 128.995 16.9329 128.995 16.041C128.995 14.9147 129.412 14.0521 130.245 13.4531C131.085 12.8477 132.283 12.5449 133.839 12.5449H135.294V11.8516C135.294 11.3047 135.141 10.8685 134.835 10.543C134.529 10.2109 134.063 10.0449 133.438 10.0449C132.898 10.0449 132.455 10.1816 132.11 10.4551C131.765 10.722 131.593 11.0638 131.593 11.4805H129.22C129.22 10.901 129.412 10.3607 129.796 9.85938C130.18 9.35156 130.701 8.95443 131.358 8.66797C132.022 8.38151 132.761 8.23828 133.575 8.23828C134.812 8.23828 135.798 8.55078 136.534 9.17578C137.27 9.79427 137.647 10.6667 137.667 11.793V16.5586C137.667 17.5091 137.8 18.2676 138.067 18.834V19H135.645ZM133.038 17.291C133.507 17.291 133.946 17.1771 134.356 16.9492C134.773 16.7214 135.085 16.4154 135.294 16.0312V14.0391H134.014C133.136 14.0391 132.475 14.1921 132.032 14.498C131.589 14.804 131.368 15.237 131.368 15.7969C131.368 16.2526 131.518 16.6172 131.817 16.8906C132.123 17.1576 132.53 17.291 133.038 17.291ZM146.849 8.43359H149.212V19H146.849V11.9492L142.708 19H140.345V8.43359H142.708V15.4844L146.849 8.43359ZM147.962 4.38086C147.962 5.20117 147.676 5.86523 147.103 6.37305C146.53 6.88086 145.765 7.13477 144.808 7.13477C143.851 7.13477 143.086 6.88086 142.513 6.37305C141.94 5.86523 141.654 5.20117 141.654 4.38086H143.431C143.431 4.81055 143.551 5.14583 143.792 5.38672C144.04 5.62109 144.378 5.73828 144.808 5.73828C145.238 5.73828 145.573 5.62109 145.814 5.38672C146.055 5.14583 146.175 4.81055 146.175 4.38086H147.962ZM160.152 10.3184H156.724V19H154.351V10.3184H150.962V8.43359H160.152V10.3184Z" transform="translate(16 203)" fill="#3F51B5"/>
<circle cx="50" cy="50" r="49" transform="translate(70 92)" stroke="#3F51B5" stroke-width="2" stroke-linecap="square" stroke-dasharray="12 12"/>
<path d="M24 13.5771H13.7143V23.76H10.2857V13.5771H0V10.1829H10.2857V0H13.7143V10.1829H24V13.5771Z" transform="translate(108 130)" fill="#3F51B5"/>
</svg>
